<?xml version="1.0" encoding="UTF-8" standalone="no"?>
<!DOCTYPE svg PUBLIC "-//W3C//DTD SVG 1.1//EN"
 "http://www.w3.org/Graphics/SVG/1.1/DTD/svg11.dtd">
<!-- Generated by graphviz version 14.1.5 (0)
 -->
<!-- Title: fsm_state_graph Pages: 1 -->
<svg width="282pt" height="344pt"
 viewBox="0.00 0.00 282.00 344.00" xmlns="http://www.w3.org/2000/svg" xmlns:xlink="http://www.w3.org/1999/xlink">
<g id="graph0" class="graph" transform="scale(1 1) rotate(0) translate(4 340.25)">
<title>fsm_state_graph</title>
<polygon fill="white" stroke="none" points="-4,4 -4,-340.25 278,-340.25 278,4 -4,4"/>
<g id="clust1" class="cluster">
<title>cluster_transitions</title>
<polygon fill="none" stroke="black" points="8,-8 8,-328.25 266,-328.25 266,-8 8,-8"/>
<text xml:space="preserve" text-anchor="middle" x="137" y="-310.95" font-family="Times,serif" font-size="14.00">State Transitions</text>
</g>
<g id="clust2" class="cluster">
<title>cluster_fsm_0</title>
<polygon fill="none" stroke="black" points="16,-128.5 16,-295 258,-295 258,-128.5 16,-128.5"/>
<text xml:space="preserve" text-anchor="middle" x="137" y="-277.7" font-family="Times,serif" font-size="14.00">pingpong: { .client, .server }</text>
</g>
<g id="clust3" class="cluster">
<title>cluster_fsm_1</title>
<polygon fill="none" stroke="black" points="89,-16 89,-93.25 186,-93.25 186,-16 89,-16"/>
<text xml:space="preserve" text-anchor="middle" x="137.5" y="-75.95" font-family="Times,serif" font-size="14.00">troupe_exit</text>
</g>
<!-- 0 -->
<g id="node1" class="node">
<title>0</title>
<polygon fill="none" stroke="red" points="248.88,-261.75 25.12,-261.75 25.12,-225.75 248.88,-225.75 248.88,-261.75"/>
<text xml:space="preserve" text-anchor="middle" x="137" y="-239.07" font-family="Times,serif" font-size="14.00">[0] Ping .client &#45;&gt; { .server }</text>
</g>
<!-- 1 -->
<g id="node2" class="node">
<title>1</title>
<polygon fill="none" stroke="green" points="250.38,-172.5 23.62,-172.5 23.62,-136.5 250.38,-136.5 250.38,-172.5"/>
<text xml:space="preserve" text-anchor="middle" x="137" y="-149.82" font-family="Times,serif" font-size="14.00">[1] Pong .server &#45;&gt; { .client }</text>
</g>
<!-- 0&#45;&gt;1 -->
<g id="edge1" class="edge">
<title>0&#45;&gt;1</title>
<path fill="none" stroke="red" d="M76.84,-225.41C69.4,-220.83 62.75,-215.04 58,-207.75 50.28,-195.89 56.68,-186.1 68.58,-178.32"/>
<polygon fill="red" stroke="red" points="70.23,-181.41 77.28,-173.51 66.84,-175.29 70.23,-181.41"/>
<text xml:space="preserve" text-anchor="middle" x="86.5" y="-194.45" font-family="Times,serif" font-size="14.00" fill="red">req_add</text>
</g>
<!-- 1&#45;&gt;0 -->
<g id="edge2" class="edge">
<title>1&#45;&gt;0</title>
<path fill="none" stroke="green" d="M137,-172.7C137,-184.52 137,-200.5 137,-214.21"/>
<polygon fill="green" stroke="green" points="133.5,-214 137,-224 140.5,-214 133.5,-214"/>
<text xml:space="preserve" text-anchor="middle" x="145.25" y="-194.45" font-family="Times,serif" font-size="14.00" fill="green">ok</text>
</g>
<!-- 2 -->
<g id="node3" class="node">
<title>2</title>
<polygon fill="none" stroke="blue" points="171.62,-60 102.38,-60 102.38,-24 171.62,-24 171.62,-60"/>
<text xml:space="preserve" text-anchor="middle" x="137" y="-37.33" font-family="Times,serif" font-size="14.00">[2] Exit</text>
</g>
<!-- 1&#45;&gt;2 -->
<g id="edge3" class="edge">
<title>1&#45;&gt;2</title>
<path fill="none" stroke="green" d="M137,-136.23C137,-118.96 137,-92.09 137,-71.62"/>
<polygon fill="green" stroke="green" points="140.5,-71.66 137,-61.66 133.5,-71.66 140.5,-71.66"/>
<text xml:space="preserve" text-anchor="middle" x="156.88" y="-105.2" font-family="Times,serif" font-size="14.00" fill="green">finish</text>
</g>
</g>
</svg>
