<?xml version="1.0" encoding="UTF-8" standalone="no"?>
<!DOCTYPE svg PUBLIC "-//W3C//DTD SVG 1.1//EN"
 "http://www.w3.org/Graphics/SVG/1.1/DTD/svg11.dtd">
<!-- Generated by graphviz version 14.1.5 (0)
 -->
<!-- Title: fsm_state_graph Pages: 1 -->
<svg width="591pt" height="720pt"
 viewBox="0.00 0.00 591.00 720.00" xmlns="http://www.w3.org/2000/svg" xmlns:xlink="http://www.w3.org/1999/xlink">
<g id="graph0" class="graph" transform="scale(1 1) rotate(0) translate(4 716)">
<title>fsm_state_graph</title>
<polygon fill="white" stroke="none" points="-4,4 -4,-716 587,-716 587,4 -4,4"/>
<g id="clust1" class="cluster">
<title>cluster_transitions</title>
<polygon fill="none" stroke="black" points="8,-8 8,-704 575,-704 575,-8 8,-8"/>
<text xml:space="preserve" text-anchor="middle" x="291.5" y="-686.7" font-family="Times,serif" font-size="14.00">State Transitions</text>
</g>
<g id="clust2" class="cluster">
<title>cluster_fsm_0</title>
<polygon fill="none" stroke="black" points="185,-16 185,-93.25 293,-93.25 293,-16 185,-16"/>
<text xml:space="preserve" text-anchor="middle" x="239" y="-75.95" font-family="Times,serif" font-size="14.00">polyrole_exit</text>
</g>
<g id="clust3" class="cluster">
<title>cluster_fsm_1</title>
<polygon fill="none" stroke="black" points="16,-128.5 16,-670.75 567,-670.75 567,-128.5 16,-128.5"/>
<text xml:space="preserve" text-anchor="middle" x="291.5" y="-653.45" font-family="Times,serif" font-size="14.00">s3: { .client, .server }</text>
</g>
<!-- 6 -->
<g id="node1" class="node">
<title>6</title>
<polygon fill="none" stroke="cyan" points="273.62,-60 204.38,-60 204.38,-24 273.62,-24 273.62,-60"/>
<text xml:space="preserve" text-anchor="middle" x="239" y="-37.33" font-family="Times,serif" font-size="14.00">[6] Exit</text>
</g>
<!-- 0 -->
<g id="node2" class="node">
<title>0</title>
<polygon fill="none" stroke="red" points="429.38,-637.5 184.62,-637.5 184.62,-601.5 429.38,-601.5 429.38,-637.5"/>
<text xml:space="preserve" text-anchor="middle" x="307" y="-614.83" font-family="Times,serif" font-size="14.00"> c [0] Start .client &#45;&gt; { .server }</text>
</g>
<!-- 1 -->
<g id="node3" class="node">
<title>1</title>
<polygon fill="none" stroke="green" points="499.5,-548.25 114.5,-548.25 114.5,-512.25 499.5,-512.25 499.5,-548.25"/>
<text xml:space="preserve" text-anchor="middle" x="307" y="-525.58" font-family="Times,serif" font-size="14.00"> S [1] ServerLookupCredential .server &#45;&gt; { .client }</text>
</g>
<!-- 0&#45;&gt;1 -->
<g id="edge1" class="edge">
<title>0&#45;&gt;1</title>
<path fill="none" stroke="red" d="M307,-601.26C307,-589.43 307,-573.45 307,-559.75"/>
<polygon fill="red" stroke="red" points="310.5,-559.97 307,-549.97 303.5,-559.97 310.5,-559.97"/>
<text xml:space="preserve" text-anchor="middle" x="385" y="-570.2" font-family="Times,serif" font-size="14.00" fill="red">req_credential_and_id</text>
</g>
<!-- 8 -->
<g id="node9" class="node">
<title>8</title>
<polygon fill="none" stroke="darkred" points="555,-261.75 311,-261.75 311,-225.75 555,-225.75 555,-261.75"/>
<text xml:space="preserve" text-anchor="middle" x="433" y="-239.07" font-family="Times,serif" font-size="14.00"> c [8] Send .client &#45;&gt; { .server }</text>
</g>
<!-- 0&#45;&gt;8 -->
<g id="edge2" class="edge">
<title>0&#45;&gt;8</title>
<path fill="none" stroke="red" d="M419.94,-601.01C436.17,-596.45 452.33,-590.71 467,-583.5 488.87,-572.75 498.7,-570.34 509,-548.25 529.68,-503.89 588.82,-538.78 495,-315 487.85,-297.94 474.81,-282.17 462.53,-269.91"/>
<polygon fill="red" stroke="red" points="464.98,-267.41 455.33,-263.06 460.16,-272.49 464.98,-267.41"/>
<text xml:space="preserve" text-anchor="middle" x="559.29" y="-417.57" font-family="Times,serif" font-size="14.00" fill="red">failed</text>
</g>
<!-- 9 -->
<g id="node10" class="node">
<title>9</title>
<polygon fill="none" stroke="darkgreen" points="313.88,-494.25 24.12,-494.25 24.12,-458.25 313.88,-458.25 313.88,-494.25"/>
<text xml:space="preserve" text-anchor="middle" x="169" y="-471.57" font-family="Times,serif" font-size="14.00"> S [9] WaitServer .server &#45;&gt; { .client }</text>
</g>
<!-- 0&#45;&gt;9 -->
<g id="edge3" class="edge">
<title>0&#45;&gt;9</title>
<path fill="none" stroke="red" d="M184.2,-601.36C153.79,-590.99 124.62,-574.48 106,-548.25 96.74,-535.2 97.89,-526.04 106,-512.25 108.29,-508.36 111.19,-504.87 114.47,-501.74"/>
<polygon fill="red" stroke="red" points="116.49,-504.61 122.14,-495.65 112.13,-499.13 116.49,-504.61"/>
<text xml:space="preserve" text-anchor="middle" x="186.46" y="-570.2" font-family="Times,serif" font-size="14.00" fill="red">get_metrics</text>
</g>
<!-- 2 -->
<g id="node4" class="node">
<title>2</title>
<polygon fill="none" stroke="blue" points="479,-440.25 229,-440.25 229,-404.25 479,-404.25 479,-440.25"/>
<text xml:space="preserve" text-anchor="middle" x="354" y="-417.57" font-family="Times,serif" font-size="14.00"> c [2] SigV4 .client &#45;&gt; { .server }</text>
</g>
<!-- 1&#45;&gt;2 -->
<g id="edge4" class="edge">
<title>1&#45;&gt;2</title>
<path fill="none" stroke="green" d="M316.28,-511.95C319.17,-506.35 322.31,-500.08 325,-494.25 331.48,-480.17 338.06,-464.22 343.32,-451"/>
<polygon fill="green" stroke="green" points="346.43,-452.64 346.83,-442.06 339.92,-450.08 346.43,-452.64"/>
<text xml:space="preserve" text-anchor="middle" x="348.12" y="-471.57" font-family="Times,serif" font-size="14.00" fill="green">ok</text>
</g>
<!-- 1&#45;&gt;8 -->
<g id="edge5" class="edge">
<title>1&#45;&gt;8</title>
<path fill="none" stroke="green" d="M315.36,-512.03C321.67,-496.26 327.34,-473.15 315,-458.25 287.59,-425.16 253.74,-466.87 220,-440.25 192.75,-418.75 204.8,-399.38 188,-369 183.35,-360.59 178.79,-360.2 176,-351 171.36,-335.69 169.07,-329.42 176,-315 186.85,-292.41 197.11,-289.95 220,-279.75 235.37,-272.9 266.15,-266.55 299.66,-261.2"/>
<polygon fill="green" stroke="green" points="299.77,-264.72 309.12,-259.72 298.7,-257.8 299.77,-264.72"/>
<text xml:space="preserve" text-anchor="middle" x="246.16" y="-372.95" font-family="Times,serif" font-size="14.00" fill="green">no_access_key</text>
</g>
<!-- 3 -->
<g id="node5" class="node">
<title>3</title>
<polygon fill="none" stroke="brown" points="435,-351 185,-351 185,-315 435,-315 435,-351"/>
<text xml:space="preserve" text-anchor="middle" x="310" y="-328.32" font-family="Times,serif" font-size="14.00"> c [3] Route .client &#45;&gt; { .server }</text>
</g>
<!-- 2&#45;&gt;3 -->
<g id="edge6" class="edge">
<title>2&#45;&gt;3</title>
<path fill="none" stroke="blue" d="M345.31,-404.01C339.16,-391.82 330.79,-375.23 323.75,-361.26"/>
<polygon fill="blue" stroke="blue" points="326.98,-359.91 319.36,-352.55 320.73,-363.06 326.98,-359.91"/>
<text xml:space="preserve" text-anchor="middle" x="344.19" y="-372.95" font-family="Times,serif" font-size="14.00" fill="blue">ok</text>
</g>
<!-- 2&#45;&gt;8 -->
<g id="edge7" class="edge">
<title>2&#45;&gt;8</title>
<path fill="none" stroke="blue" d="M389.73,-403.78C409.67,-391.91 432.7,-374.16 444,-351 455.98,-326.45 450.53,-294.97 443.74,-272.66"/>
<polygon fill="blue" stroke="blue" points="447.12,-271.73 440.64,-263.36 440.48,-273.95 447.12,-271.73"/>
<text xml:space="preserve" text-anchor="middle" x="470.94" y="-328.32" font-family="Times,serif" font-size="14.00" fill="blue">failed</text>
</g>
<!-- 4 -->
<g id="node6" class="node">
<title>4</title>
<polygon fill="none" stroke="navy" points="286,-261.75 42,-261.75 42,-225.75 286,-225.75 286,-261.75"/>
<text xml:space="preserve" text-anchor="middle" x="164" y="-239.07" font-family="Times,serif" font-size="14.00"> c [4] Send .client &#45;&gt; { .server }</text>
</g>
<!-- 3&#45;&gt;4 -->
<g id="edge8" class="edge">
<title>3&#45;&gt;4</title>
<path fill="none" stroke="brown" d="M280.81,-314.55C258.43,-301.18 227.33,-282.59 202.85,-267.96"/>
<polygon fill="brown" stroke="brown" points="204.82,-265.07 194.44,-262.94 201.23,-271.08 204.82,-265.07"/>
<text xml:space="preserve" text-anchor="middle" x="258.33" y="-283.7" font-family="Times,serif" font-size="14.00" fill="brown">ok</text>
</g>
<!-- 3&#45;&gt;8 -->
<g id="edge9" class="edge">
<title>3&#45;&gt;8</title>
<path fill="none" stroke="brown" d="M334.6,-314.55C353.11,-301.42 378.72,-283.25 399.17,-268.75"/>
<polygon fill="brown" stroke="brown" points="401.08,-271.68 407.21,-263.04 397.03,-265.97 401.08,-271.68"/>
<text xml:space="preserve" text-anchor="middle" x="402.39" y="-283.7" font-family="Times,serif" font-size="14.00" fill="brown">failed</text>
</g>
<!-- 5 -->
<g id="node7" class="node">
<title>5</title>
<polygon fill="none" stroke="teal" points="291.62,-172.5 24.38,-172.5 24.38,-136.5 291.62,-136.5 291.62,-172.5"/>
<text xml:space="preserve" text-anchor="middle" x="158" y="-149.82" font-family="Times,serif" font-size="14.00"> S [5] Success .server &#45;&gt; { .client }</text>
</g>
<!-- 4&#45;&gt;5 -->
<g id="edge10" class="edge">
<title>4&#45;&gt;5</title>
<path fill="none" stroke="navy" d="M162.81,-225.51C162,-213.68 160.9,-197.7 159.96,-184"/>
<polygon fill="navy" stroke="navy" points="163.46,-183.95 159.29,-174.21 156.48,-184.43 163.46,-183.95"/>
<text xml:space="preserve" text-anchor="middle" x="181.41" y="-194.45" font-family="Times,serif" font-size="14.00" fill="navy">finish</text>
</g>
<!-- 7 -->
<g id="node8" class="node">
<title>7</title>
<polygon fill="none" stroke="magenta" points="558.62,-172.5 309.38,-172.5 309.38,-136.5 558.62,-136.5 558.62,-172.5"/>
<text xml:space="preserve" text-anchor="middle" x="434" y="-149.82" font-family="Times,serif" font-size="14.00"> S [7] Error .server &#45;&gt; { .client }</text>
</g>
<!-- 4&#45;&gt;7 -->
<g id="edge11" class="edge">
<title>4&#45;&gt;7</title>
<path fill="none" stroke="navy" d="M217.99,-225.3C261.59,-211.22 323.07,-191.35 369.3,-176.41"/>
<polygon fill="navy" stroke="navy" points="370.22,-179.79 378.66,-173.38 368.07,-173.13 370.22,-179.79"/>
<text xml:space="preserve" text-anchor="middle" x="343.06" y="-194.45" font-family="Times,serif" font-size="14.00" fill="navy">failed</text>
</g>
<!-- 5&#45;&gt;6 -->
<g id="edge12" class="edge">
<title>5&#45;&gt;6</title>
<path fill="none" stroke="teal" d="M170.66,-136.23C183.79,-118.31 204.5,-90.06 219.69,-69.35"/>
<polygon fill="teal" stroke="teal" points="222.45,-71.5 225.54,-61.37 216.8,-67.36 222.45,-71.5"/>
<text xml:space="preserve" text-anchor="middle" x="209.57" y="-105.2" font-family="Times,serif" font-size="14.00" fill="teal">exit</text>
</g>
<!-- 7&#45;&gt;6 -->
<g id="edge13" class="edge">
<title>7&#45;&gt;6</title>
<path fill="none" stroke="magenta" d="M403.53,-136.23C370.14,-117.31 316.43,-86.88 279.51,-65.96"/>
<polygon fill="magenta" stroke="magenta" points="281.32,-62.96 270.89,-61.07 277.87,-69.05 281.32,-62.96"/>
<text xml:space="preserve" text-anchor="middle" x="384.43" y="-105.2" font-family="Times,serif" font-size="14.00" fill="magenta">exit</text>
</g>
<!-- 8&#45;&gt;7 -->
<g id="edge14" class="edge">
<title>8&#45;&gt;7</title>
<path fill="none" stroke="darkred" d="M433.2,-225.51C433.33,-213.68 433.52,-197.7 433.67,-184"/>
<polygon fill="darkred" stroke="darkred" points="437.17,-184.25 433.79,-174.22 430.17,-184.17 437.17,-184.25"/>
<text xml:space="preserve" text-anchor="middle" x="453.46" y="-194.45" font-family="Times,serif" font-size="14.00" fill="darkred">finish</text>
</g>
<!-- 8&#45;&gt;7 -->
<g id="edge15" class="edge">
<title>8&#45;&gt;7</title>
<path fill="none" stroke="darkred" d="M403.73,-225.44C397.88,-220.51 392.54,-214.59 389.25,-207.75 385.93,-200.84 385.89,-197.39 389.25,-190.5 390.99,-186.93 393.28,-183.62 395.92,-180.58"/>
<polygon fill="darkred" stroke="darkred" points="398.22,-183.22 402.98,-173.75 393.36,-178.19 398.22,-183.22"/>
<text xml:space="preserve" text-anchor="middle" x="409.12" y="-194.45" font-family="Times,serif" font-size="14.00" fill="darkred">failed</text>
</g>
<!-- 9&#45;&gt;4 -->
<g id="edge16" class="edge">
<title>9&#45;&gt;4</title>
<path fill="none" stroke="darkgreen" d="M163.27,-457.76C157.78,-439.98 149.86,-411.54 146.75,-386.25 141.93,-347.13 149.79,-301.93 156.41,-273.34"/>
<polygon fill="darkgreen" stroke="darkgreen" points="159.8,-274.19 158.77,-263.65 153,-272.54 159.8,-274.19"/>
<text xml:space="preserve" text-anchor="middle" x="167.38" y="-372.95" font-family="Times,serif" font-size="14.00" fill="darkgreen">notify</text>
</g>
</g>
</svg>
